<svg width="264" height="272" viewBox="0 0 264 272" fill="none" xmlns="http://www.w3.org/2000/svg">
<g clip-path="url(#clip0)">
<path d="M0 12C0 5.37258 5.37258 0 12 0H252C258.627 0 264 5.37258 264 12V260C264 266.627 258.627 272 252 272H12C5.37259 272 0 266.627 0 260V12Z" fill="#5794DE"/>
<path d="M221 191H171C169.3 191 168 189.7 168 188C168 186.3 169.3 185 171 185H221C222.7 185 224 186.3 224 188C224 189.7 222.7 191 221 191ZM204 221H171C169.3 221 168 219.7 168 218C168 216.3 169.3 215 171 215H204C205.7 215 207 216.3 207 218C207 219.7 205.7 221 204 221ZM187 236H171C169.3 236 168 234.7 168 233C168 231.3 169.3 230 171 230H187C188.7 230 190 231.3 190 233C190 234.7 188.7 236 187 236ZM181 251H171C169.3 251 168 249.7 168 248C168 246.3 169.3 245 171 245H181C182.7 245 184 246.3 184 248C184 249.7 182.7 251 181 251ZM181 266H171C169.3 266 168 264.7 168 263C168 261.3 169.3 260 171 260H181C182.7 260 184 261.3 184 263C184 264.7 182.7 266 181 266ZM221 206H191C189.3 206 188 204.7 188 203C188 201.3 189.3 200 191 200H221C222.7 200 224 201.3 224 203C224 204.7 222.7 206 221 206ZM171 206C170.2 206 169.4 205.7 168.9 205.1C168.8 205 168.6 204.8 168.5 204.7C168.4 204.5 168.3 204.4 168.2 204.2C168.1 204 168.1 203.8 168 203.6C168 203.4 167.9 203.2 167.9 203C167.9 202.8 167.9 202.6 168 202.4C168 202.2 168.1 202 168.2 201.8C168.3 201.6 168.4 201.5 168.5 201.3C168.6 201.1 168.7 201 168.9 200.8C170 199.7 172 199.7 173.1 200.8C173.2 200.9 173.4 201.1 173.5 201.3C173.6 201.5 173.7 201.6 173.8 201.8C173.9 202 173.9 202.2 174 202.4C174 202.6 174.1 202.8 174.1 203C174.1 203.2 174.1 203.4 174 203.6C174 203.8 173.9 204 173.8 204.2C173.7 204.4 173.6 204.6 173.5 204.7C173.4 204.9 173.3 205 173.1 205.1C172.6 205.7 171.8 206 171 206Z" fill="white" fill-opacity="0.16"/>
<path d="M153 157C153 155.3 154.3 154 156 154C157.7 154 159 155.3 159 157V276C159 277.7 157.7 279 156 279C154.3 279 153 277.7 153 276V157Z" fill="white" fill-opacity="0.16"/>
<path fill-rule="evenodd" clip-rule="evenodd" d="M238.553 277.613C238.031 278.456 237.099 279 236 279C235.397 279 234.844 278.836 234.381 278.549C232.697 278.845 230.965 279 229.199 279C212.699 279 199.199 265.5 199.199 249C199.199 232.5 212.699 219 229.199 219C230.486 219 231.755 219.082 233 219.241V164.2L228.1 169.1C226.9 170.3 225 170.3 223.9 169.1L216 161.2L208.1 169.1C206.9 170.3 205 170.3 203.9 169.1L196 161.2L188.1 169.1C186.9 170.3 185 170.3 183.9 169.1L173.9 159.1C172.7 157.9 172.7 156 173.9 154.9C175.1 153.7 177 153.7 178.1 154.9L186 162.8L193.9 154.9C195.1 153.7 197 153.7 198.1 154.9L206 162.8L213.9 154.9C215.1 153.7 217 153.7 218.1 154.9L226 162.8L233.9 154.9C234.7 154 236 153.8 237.1 154.2C238.3 154.7 239 155.8 239 157V220.654C239.271 220.748 239.541 220.847 239.809 220.949C242.708 220.008 245.798 219.5 249 219.5C265.5 219.5 279 233 279 249.5C279 266 265.5 279.5 249 279.5C245.331 279.5 241.81 278.832 238.553 277.613ZM230.37 272.972C223.453 267.463 219 258.977 219 249.5C219 239.484 223.974 230.574 231.574 225.117C230.793 225.04 230 225 229.199 225C215.999 225 205.199 235.8 205.199 249C205.199 262.2 215.999 273 229.199 273C229.592 273 229.982 272.99 230.37 272.972ZM225 249.5C225 236.3 235.8 225.5 249 225.5C262.2 225.5 273 236.3 273 249.5C273 262.7 262.2 273.5 249 273.5C235.8 273.5 225 262.7 225 249.5Z" fill="white" fill-opacity="0.16"/>
<path fill-rule="evenodd" clip-rule="evenodd" d="M245 259.5C245 260.35 245.65 261 246.5 261C247.35 261 248 260.35 248 259.5V257H251.5C252.35 257 253 256.35 253 255.5C253 254.65 252.35 254 251.5 254H248V252H251.5C255.1 252 258 249.1 258 245.5C258 241.9 255.1 239 251.5 239H246.5C245.65 239 245 239.65 245 240.5V249H241.5C240.65 249 240 249.65 240 250.5C240 251.35 240.65 252 241.5 252H245V254H241.5C240.65 254 240 254.65 240 255.5C240 256.35 240.65 257 241.5 257H245V259.5ZM251.5 249H248V242H251.5C253.45 242 255 243.55 255 245.5C255 247.45 253.45 249 251.5 249Z" fill="white" fill-opacity="0.16"/>
</g>
<path d="M12 1H252V-1H12V1ZM263 12V260H265V12H263ZM252 271H12V273H252V271ZM1 260V12H-1V260H1ZM12 271C5.92487 271 1 266.075 1 260H-1C-1 267.18 4.8203 273 12 273V271ZM263 260C263 266.075 258.075 271 252 271V273C259.18 273 265 267.18 265 260H263ZM252 1C258.075 1 263 5.92487 263 12H265C265 4.8203 259.18 -1 252 -1V1ZM12 -1C4.8203 -1 -1 4.82029 -1 12H1C1 5.92486 5.92487 1 12 1V-1Z" fill="#5794DE" fill-opacity="0.36"/>
<defs>
<clipPath id="clip0">
<path d="M0 12C0 5.37258 5.37258 0 12 0H252C258.627 0 264 5.37258 264 12V260C264 266.627 258.627 272 252 272H12C5.37259 272 0 266.627 0 260V12Z" fill="white"/>
</clipPath>
</defs>
</svg>
