<svg width="270" height="272" viewBox="0 0 270 272" fill="none" xmlns="http://www.w3.org/2000/svg">
<path d="M0 12C0 5.3726 5.3726 0 12 0H252C258.627 0 264 5.3726 264 12V260C264 266.627 258.627 272 252 272H12C5.3726 272 0 266.627 0 260V12Z" fill="#4E8E96"/>
<g opacity="0.16">
<path opacity="0.16" d="M212.2 202.7H173.8C172.5 202.7 171.4 201.6 171.4 200.3V162.4C171.4 161.1 172.5 160 173.8 160H212.2C213.5 160 214.6 161.1 214.6 162.4V200.2C214.7 201.6 213.6 202.7 212.2 202.7Z" fill="white" fill-opacity="0.5"/>
<path opacity="0.16" d="M183.236 160H179.564C178.849 160.54 178.4 161.401 178.4 162.4V180.3C178.4 182 179.7 183.3 181.4 183.3C183 183.3 184.4 181.9 184.4 180.3V162.4C184.4 161.401 183.951 160.54 183.236 160Z" fill="white" fill-opacity="0.5"/>
<path opacity="0.16" d="M212.2 254H173.8C172.5 254 171.4 252.9 171.4 251.6V213.7C171.4 212.4 172.5 211.3 173.8 211.3H212.2C213.5 211.3 214.6 212.401 214.6 213.7V251.5C214.7 252.9 213.6 254 212.2 254Z" fill="white" fill-opacity="0.5"/>
<path opacity="0.16" d="M183.234 211.3H179.563C178.848 211.84 178.398 212.701 178.398 213.7V231.6C178.398 233.3 179.698 234.6 181.398 234.6C182.998 234.6 184.398 233.201 184.398 231.6V213.7C184.399 212.701 183.95 211.84 183.234 211.3Z" fill="white" fill-opacity="0.5"/>
<path opacity="0.16" d="M264.199 254H225.799C224.499 254 223.4 252.9 223.4 251.6V213.7C223.4 212.4 224.5 211.3 225.799 211.3H264.199C265.499 211.3 266.598 212.401 266.598 213.7V251.5C266.599 252.9 265.499 254 264.199 254Z" fill="white" fill-opacity="0.5"/>
<path opacity="0.16" d="M235.136 211.3H231.465C230.75 211.84 230.3 212.701 230.3 213.7V231.6C230.3 233.3 231.6 234.6 233.3 234.6C235 234.6 236.3 233.201 236.3 231.6V213.7C236.301 212.701 235.852 211.84 235.136 211.3Z" fill="white" fill-opacity="0.5"/>
<path opacity="0.16" d="M212.2 205.7H173.8C170.8 205.7 168.4 203.3 168.4 200.3V162.4C168.4 159.4 170.8 157 173.8 157H212.2C215.2 157 217.6 159.4 217.6 162.4V200.3C217.7 203.3 215.2 205.7 212.2 205.7ZM174.4 199.7H211.7V163H174.4V199.7Z" fill="white"/>
<path opacity="0.16" d="M224.699 159.4C222.999 159.4 221.699 160.7 221.699 162.4V200.3C221.699 202 222.999 203.3 224.699 203.3C226.299 203.3 227.699 201.9 227.699 200.3V162.4C227.699 160.7 226.399 159.4 224.699 159.4ZM234.699 159.4C232.999 159.4 231.699 160.7 231.699 162.4V200.3C231.699 202 232.999 203.3 234.699 203.3C236.299 203.3 237.699 201.9 237.699 200.3V162.4C237.699 160.7 236.399 159.4 234.699 159.4ZM244.699 159.4C242.999 159.4 241.699 160.7 241.699 162.4V200.3C241.699 202 242.999 203.3 244.699 203.3C246.299 203.3 247.699 201.9 247.699 200.3V162.4C247.699 160.7 246.399 159.4 244.699 159.4ZM254.699 159.4C252.999 159.4 251.699 160.7 251.699 162.4V200.3C251.699 202 252.999 203.3 254.699 203.3C256.299 203.3 257.699 201.9 257.699 200.3V162.4C257.699 160.7 256.399 159.4 254.699 159.4ZM264.699 159.4C262.999 159.4 261.699 160.7 261.699 162.4V200.3C261.699 202 262.999 203.3 264.699 203.3C266.299 203.3 267.699 201.9 267.699 200.3V162.4C267.699 160.7 266.399 159.4 264.699 159.4Z" fill="white" fill-opacity="0.5"/>
<path opacity="0.16" d="M212.2 257H173.8C170.8 257 168.4 254.6 168.4 251.6V213.7C168.4 210.7 170.8 208.3 173.8 208.3H212.2C215.2 208.3 217.6 210.7 217.6 213.7V251.6C217.7 254.6 215.2 257 212.2 257ZM174.4 251H211.7V214.3H174.4V251ZM264.2 257H225.8C222.8 257 220.4 254.6 220.4 251.6V213.7C220.4 210.7 222.8 208.3 225.8 208.3H264.2C267.2 208.3 269.6 210.7 269.6 213.7V251.6C269.6 254.6 267.2 257 264.2 257ZM226.3 251H263.6V214.3H226.3V251Z" fill="white"/>
</g>
</svg>
